<?xml version="1.0" encoding="UTF-8"?>
<svg width="96px" height="96px" viewBox="0 0 96 96" version="1.1" xmlns="http://www.w3.org/2000/svg" xmlns:xlink="http://www.w3.org/1999/xlink">
    <title>Group 3</title>
    <g id="Icon" stroke="none" stroke-width="1" fill="none" fill-rule="evenodd">
        <g id="Dock" transform="translate(-626.000000, -724.000000)" fill="#FFFFFF">
            <g id="Group-3" transform="translate(626.000000, 724.000000)">
                <path d="M48,0 C21.4903,0 0,21.4903 0,48 C0,74.4919 21.5081,96 48,96 C74.5097,96 96,74.5097 96,48 L80.1903,48 C75.9508,48 72.2133,50.7809 70.9952,54.8416 C68.0626,64.7653 58.8762,72 48,72 C34.754,72 24,61.246 24,48 C24,37.1238 31.2347,27.9374 41.1541,24.9905 C45.2085,23.7743 47.985,20.0426 47.985,15.8097 C48,8.8568 48,0 48,0 Z" id="Fill-1"></path>
                <path d="M72,12 C78.623,12 84,17.377 84,24 C84,30.623 78.623,36 72,36 C65.377,36 60,30.623 60,24 C60,17.377 65.377,12 72,12 Z" id="Fill-2"></path>
            </g>
        </g>
    </g>
</svg>